<mxfile host="65bd71144e">
    <diagram id="TUL-UYeq6HDb0CNwIHWx" name="GitOps">
        <mxGraphModel dx="1552" dy="700" grid="1" gridSize="10" guides="1" tooltips="1" connect="1" arrows="1" fold="1" page="1" pageScale="1" pageWidth="827" pageHeight="1169" background="#ffffff" math="0" shadow="0">
            <root>
                <mxCell id="nsVgLiraT71_AxL_cq3k-0"/>
                <mxCell id="nsVgLiraT71_AxL_cq3k-1" parent="nsVgLiraT71_AxL_cq3k-0"/>
                <mxCell id="6ou4WCCmQBVYviTk-9dl-51" value="per app" style="shape=umlFrame;whiteSpace=wrap;html=1;" parent="nsVgLiraT71_AxL_cq3k-1" vertex="1">
                    <mxGeometry x="514" y="290" width="596" height="130" as="geometry"/>
                </mxCell>
                <mxCell id="nsVgLiraT71_AxL_cq3k-3" value="«Kubernetes»&lt;br&gt;&lt;b&gt;cluster&lt;/b&gt;" style="html=1;verticalAlign=top;" parent="nsVgLiraT71_AxL_cq3k-1" vertex="1">
                    <mxGeometry x="160" y="880" width="644" height="610" as="geometry"/>
                </mxCell>
                <mxCell id="nsVgLiraT71_AxL_cq3k-10" value="namespace-app-cicd" style="rounded=0;whiteSpace=wrap;html=1;verticalAlign=top;fillColor=none;strokeColor=#82b366;" parent="nsVgLiraT71_AxL_cq3k-1" vertex="1">
                    <mxGeometry x="180" y="1260" width="394" height="210" as="geometry"/>
                </mxCell>
                <mxCell id="nsVgLiraT71_AxL_cq3k-30" style="edgeStyle=orthogonalEdgeStyle;rounded=0;html=1;entryX=0;entryY=0.048;entryDx=0;entryDy=0;entryPerimeter=0;exitX=1;exitY=0.5;exitDx=0;exitDy=0;" parent="nsVgLiraT71_AxL_cq3k-1" source="6ou4WCCmQBVYviTk-9dl-10" target="nsVgLiraT71_AxL_cq3k-29" edge="1">
                    <mxGeometry relative="1" as="geometry">
                        <mxPoint x="544" y="1305" as="sourcePoint"/>
                    </mxGeometry>
                </mxCell>
                <mxCell id="nsVgLiraT71_AxL_cq3k-28" style="edgeStyle=orthogonalEdgeStyle;rounded=0;html=1;entryX=0;entryY=0.048;entryDx=0;entryDy=0;entryPerimeter=0;exitX=1;exitY=0.5;exitDx=0;exitDy=0;" parent="nsVgLiraT71_AxL_cq3k-1" source="6ou4WCCmQBVYviTk-9dl-9" target="nsVgLiraT71_AxL_cq3k-11" edge="1">
                    <mxGeometry relative="1" as="geometry">
                        <Array as="points">
                            <mxPoint x="584" y="1375"/>
                            <mxPoint x="584" y="1250"/>
                        </Array>
                        <mxPoint x="534" y="1325" as="sourcePoint"/>
                    </mxGeometry>
                </mxCell>
                <mxCell id="nsVgLiraT71_AxL_cq3k-31" style="edgeStyle=orthogonalEdgeStyle;rounded=0;html=1;entryX=0.006;entryY=0.076;entryDx=0;entryDy=0;entryPerimeter=0;exitX=1;exitY=0.5;exitDx=0;exitDy=0;" parent="nsVgLiraT71_AxL_cq3k-1" source="6ou4WCCmQBVYviTk-9dl-8" target="nsVgLiraT71_AxL_cq3k-2" edge="1">
                    <mxGeometry relative="1" as="geometry">
                        <Array as="points">
                            <mxPoint x="524" y="1390"/>
                            <mxPoint x="584" y="1390"/>
                            <mxPoint x="584" y="1276"/>
                        </Array>
                        <mxPoint x="524" y="1345" as="sourcePoint"/>
                    </mxGeometry>
                </mxCell>
                <mxCell id="nsVgLiraT71_AxL_cq3k-32" value="manage" style="edgeLabel;html=1;align=center;verticalAlign=middle;resizable=0;points=[];" parent="nsVgLiraT71_AxL_cq3k-31" vertex="1" connectable="0">
                    <mxGeometry x="-0.2401" relative="1" as="geometry">
                        <mxPoint as="offset"/>
                    </mxGeometry>
                </mxCell>
                <mxCell id="nsVgLiraT71_AxL_cq3k-17" value="namespace-governance" style="rounded=0;whiteSpace=wrap;html=1;verticalAlign=top;" parent="nsVgLiraT71_AxL_cq3k-1" vertex="1">
                    <mxGeometry x="190" y="930" width="400" height="210" as="geometry"/>
                </mxCell>
                <mxCell id="nsVgLiraT71_AxL_cq3k-26" style="edgeStyle=none;html=1;" parent="nsVgLiraT71_AxL_cq3k-1" edge="1">
                    <mxGeometry relative="1" as="geometry">
                        <mxPoint x="524" y="1025" as="targetPoint"/>
                    </mxGeometry>
                </mxCell>
                <mxCell id="6ou4WCCmQBVYviTk-9dl-57" value="" style="edgeStyle=orthogonalEdgeStyle;rounded=0;html=1;entryX=0.53;entryY=-0.005;entryDx=0;entryDy=0;entryPerimeter=0;startArrow=none;startFill=0;endArrow=classic;endFill=1;" parent="nsVgLiraT71_AxL_cq3k-1" source="nsVgLiraT71_AxL_cq3k-23" target="nsVgLiraT71_AxL_cq3k-10" edge="1">
                    <mxGeometry x="-0.597" y="10" relative="1" as="geometry">
                        <mxPoint as="offset"/>
                    </mxGeometry>
                </mxCell>
                <mxCell id="6ou4WCCmQBVYviTk-9dl-58" value="1. create" style="edgeStyle=orthogonalEdgeStyle;rounded=0;html=1;entryX=0.5;entryY=0;entryDx=0;entryDy=0;startArrow=none;startFill=0;endArrow=classic;endFill=1;" parent="nsVgLiraT71_AxL_cq3k-1" source="nsVgLiraT71_AxL_cq3k-23" target="nsVgLiraT71_AxL_cq3k-29" edge="1">
                    <mxGeometry x="0.0016" y="10" relative="1" as="geometry">
                        <Array as="points">
                            <mxPoint x="709" y="1210"/>
                        </Array>
                        <mxPoint as="offset"/>
                    </mxGeometry>
                </mxCell>
                <mxCell id="6ou4WCCmQBVYviTk-9dl-76" value="2. create" style="edgeStyle=orthogonalEdgeStyle;rounded=0;html=1;entryX=0.027;entryY=1.006;entryDx=0;entryDy=0;entryPerimeter=0;startArrow=none;startFill=0;endArrow=classic;endFill=1;" parent="nsVgLiraT71_AxL_cq3k-1" source="nsVgLiraT71_AxL_cq3k-23" target="6ou4WCCmQBVYviTk-9dl-75" edge="1">
                    <mxGeometry x="0.6003" relative="1" as="geometry">
                        <mxPoint as="offset"/>
                    </mxGeometry>
                </mxCell>
                <mxCell id="nsVgLiraT71_AxL_cq3k-23" value="DevOps Engineer" style="shape=umlActor;verticalLabelPosition=bottom;verticalAlign=top;html=1;outlineConnect=0;fillColor=#d5e8d4;strokeColor=#82b366;" parent="nsVgLiraT71_AxL_cq3k-1" vertex="1">
                    <mxGeometry x="90" y="1180" width="30" height="60" as="geometry"/>
                </mxCell>
                <mxCell id="nsVgLiraT71_AxL_cq3k-24" value="App-Developer" style="shape=umlActor;verticalLabelPosition=bottom;verticalAlign=top;html=1;outlineConnect=0;fillColor=#dae8fc;strokeColor=#6c8ebf;" parent="nsVgLiraT71_AxL_cq3k-1" vertex="1">
                    <mxGeometry x="874" y="1285" width="30" height="60" as="geometry"/>
                </mxCell>
                <mxCell id="nsVgLiraT71_AxL_cq3k-29" value="namespace-app-stage3" style="rounded=0;whiteSpace=wrap;html=1;verticalAlign=top;fillColor=none;strokeColor=#82b366;" parent="nsVgLiraT71_AxL_cq3k-1" vertex="1">
                    <mxGeometry x="624" y="1220" width="170" height="210" as="geometry"/>
                </mxCell>
                <mxCell id="nsVgLiraT71_AxL_cq3k-11" value="namespace-app-stage2" style="rounded=0;whiteSpace=wrap;html=1;verticalAlign=top;fillColor=default;strokeColor=#82b366;" parent="nsVgLiraT71_AxL_cq3k-1" vertex="1">
                    <mxGeometry x="614" y="1240" width="170" height="210" as="geometry"/>
                </mxCell>
                <mxCell id="nsVgLiraT71_AxL_cq3k-2" value="namespace-app-stage1" style="rounded=0;whiteSpace=wrap;html=1;verticalAlign=top;fillColor=default;strokeColor=#82b366;" parent="nsVgLiraT71_AxL_cq3k-1" vertex="1">
                    <mxGeometry x="604" y="1260" width="170" height="210" as="geometry"/>
                </mxCell>
                <mxCell id="nsVgLiraT71_AxL_cq3k-8" value="..." style="rounded=0;whiteSpace=wrap;html=1;fillColor=#dae8fc;strokeColor=#6c8ebf;" parent="nsVgLiraT71_AxL_cq3k-1" vertex="1">
                    <mxGeometry x="664" y="1340" width="90" height="30" as="geometry"/>
                </mxCell>
                <mxCell id="nsVgLiraT71_AxL_cq3k-7" value="pvc" style="rounded=0;whiteSpace=wrap;html=1;fillColor=#dae8fc;strokeColor=#6c8ebf;" parent="nsVgLiraT71_AxL_cq3k-1" vertex="1">
                    <mxGeometry x="654" y="1360" width="90" height="30" as="geometry"/>
                </mxCell>
                <mxCell id="nsVgLiraT71_AxL_cq3k-5" value="ingress" style="rounded=0;whiteSpace=wrap;html=1;fillColor=#dae8fc;strokeColor=#6c8ebf;" parent="nsVgLiraT71_AxL_cq3k-1" vertex="1">
                    <mxGeometry x="644" y="1380" width="90" height="30" as="geometry"/>
                </mxCell>
                <mxCell id="nsVgLiraT71_AxL_cq3k-6" value="service" style="rounded=0;whiteSpace=wrap;html=1;fillColor=#dae8fc;strokeColor=#6c8ebf;" parent="nsVgLiraT71_AxL_cq3k-1" vertex="1">
                    <mxGeometry x="634" y="1400" width="90" height="30" as="geometry"/>
                </mxCell>
                <mxCell id="nsVgLiraT71_AxL_cq3k-4" value="deployment" style="rounded=0;whiteSpace=wrap;html=1;fillColor=#dae8fc;strokeColor=#6c8ebf;" parent="nsVgLiraT71_AxL_cq3k-1" vertex="1">
                    <mxGeometry x="624" y="1420" width="90" height="30" as="geometry"/>
                </mxCell>
                <mxCell id="6ou4WCCmQBVYviTk-9dl-1" style="edgeStyle=orthogonalEdgeStyle;rounded=0;html=1;exitX=0;exitY=0.5;exitDx=0;exitDy=0;" parent="nsVgLiraT71_AxL_cq3k-1" source="6ou4WCCmQBVYviTk-9dl-7" target="6ou4WCCmQBVYviTk-9dl-6" edge="1">
                    <mxGeometry relative="1" as="geometry">
                        <mxPoint x="349" y="1360" as="sourcePoint"/>
                    </mxGeometry>
                </mxCell>
                <mxCell id="6ou4WCCmQBVYviTk-9dl-2" style="edgeStyle=orthogonalEdgeStyle;rounded=0;html=1;entryX=0;entryY=0.25;entryDx=0;entryDy=0;exitX=1;exitY=0.5;exitDx=0;exitDy=0;" parent="nsVgLiraT71_AxL_cq3k-1" source="6ou4WCCmQBVYviTk-9dl-7" target="6ou4WCCmQBVYviTk-9dl-8" edge="1">
                    <mxGeometry relative="1" as="geometry">
                        <mxPoint x="405" y="1405" as="sourcePoint"/>
                        <mxPoint x="445" y="1345" as="targetPoint"/>
                        <Array as="points">
                            <mxPoint x="430" y="1405"/>
                            <mxPoint x="430" y="1398"/>
                        </Array>
                    </mxGeometry>
                </mxCell>
                <mxCell id="6ou4WCCmQBVYviTk-9dl-3" style="edgeStyle=orthogonalEdgeStyle;rounded=0;html=1;entryX=0;entryY=0.25;entryDx=0;entryDy=0;exitX=1;exitY=0.5;exitDx=0;exitDy=0;" parent="nsVgLiraT71_AxL_cq3k-1" source="6ou4WCCmQBVYviTk-9dl-7" target="6ou4WCCmQBVYviTk-9dl-9" edge="1">
                    <mxGeometry relative="1" as="geometry">
                        <mxPoint x="405" y="1378" as="sourcePoint"/>
                        <mxPoint x="455" y="1325" as="targetPoint"/>
                        <Array as="points">
                            <mxPoint x="430" y="1405"/>
                            <mxPoint x="430" y="1378"/>
                        </Array>
                    </mxGeometry>
                </mxCell>
                <mxCell id="6ou4WCCmQBVYviTk-9dl-4" value="generate" style="edgeStyle=orthogonalEdgeStyle;rounded=0;html=1;entryX=0;entryY=0.25;entryDx=0;entryDy=0;exitX=1;exitY=0.5;exitDx=0;exitDy=0;" parent="nsVgLiraT71_AxL_cq3k-1" source="6ou4WCCmQBVYviTk-9dl-7" target="6ou4WCCmQBVYviTk-9dl-10" edge="1">
                    <mxGeometry x="0.0211" y="20" relative="1" as="geometry">
                        <mxPoint x="405" y="1380" as="sourcePoint"/>
                        <mxPoint x="465" y="1305" as="targetPoint"/>
                        <mxPoint as="offset"/>
                    </mxGeometry>
                </mxCell>
                <mxCell id="6ou4WCCmQBVYviTk-9dl-5" value="«argo-cd»&lt;br&gt;&lt;b&gt;argo-app&lt;/b&gt;" style="html=1;fillColor=#ffe6cc;strokeColor=#d79b00;" parent="nsVgLiraT71_AxL_cq3k-1" vertex="1">
                    <mxGeometry x="190" y="1300" width="90" height="30" as="geometry"/>
                </mxCell>
                <mxCell id="6ou4WCCmQBVYviTk-9dl-6" value="«argo-project»&lt;br&gt;&lt;b&gt;argo-app-prj&lt;/b&gt;" style="html=1;fillColor=#ffe6cc;strokeColor=#d79b00;" parent="nsVgLiraT71_AxL_cq3k-1" vertex="1">
                    <mxGeometry x="190" y="1360" width="90" height="30" as="geometry"/>
                </mxCell>
                <mxCell id="6ou4WCCmQBVYviTk-9dl-13" value="reference" style="edgeStyle=orthogonalEdgeStyle;rounded=0;html=1;entryX=0;entryY=0.5;entryDx=0;entryDy=0;dashed=1;dashPattern=1 1;exitX=0.5;exitY=1;exitDx=0;exitDy=0;" parent="nsVgLiraT71_AxL_cq3k-1" source="6ou4WCCmQBVYviTk-9dl-7" target="6ou4WCCmQBVYviTk-9dl-11" edge="1">
                    <mxGeometry relative="1" as="geometry">
                        <Array as="points">
                            <mxPoint x="349" y="1545"/>
                        </Array>
                    </mxGeometry>
                </mxCell>
                <mxCell id="6ou4WCCmQBVYviTk-9dl-7" value="«argo-app»&lt;br&gt;&lt;b&gt;app-bootstrap&lt;/b&gt;" style="html=1;fillColor=#ffe6cc;strokeColor=#d79b00;" parent="nsVgLiraT71_AxL_cq3k-1" vertex="1">
                    <mxGeometry x="304" y="1390" width="90" height="30" as="geometry"/>
                </mxCell>
                <mxCell id="6ou4WCCmQBVYviTk-9dl-10" value="«argo-app»&lt;br&gt;&lt;b&gt;app-stage3&lt;/b&gt;" style="html=1;fillColor=#dae8fc;strokeColor=#6c8ebf;" parent="nsVgLiraT71_AxL_cq3k-1" vertex="1">
                    <mxGeometry x="465" y="1350" width="90" height="30" as="geometry"/>
                </mxCell>
                <mxCell id="6ou4WCCmQBVYviTk-9dl-9" value="«argo-app»&lt;br&gt;&lt;b&gt;app-stage2&lt;/b&gt;" style="html=1;fillColor=#dae8fc;strokeColor=#6c8ebf;" parent="nsVgLiraT71_AxL_cq3k-1" vertex="1">
                    <mxGeometry x="455" y="1370" width="90" height="30" as="geometry"/>
                </mxCell>
                <mxCell id="6ou4WCCmQBVYviTk-9dl-14" value="observe (branch/dir)" style="edgeStyle=orthogonalEdgeStyle;rounded=0;html=1;entryX=1;entryY=0.5;entryDx=0;entryDy=0;dashed=1;dashPattern=1 1;exitX=1;exitY=0.5;exitDx=0;exitDy=0;" parent="nsVgLiraT71_AxL_cq3k-1" source="6ou4WCCmQBVYviTk-9dl-8" target="6ou4WCCmQBVYviTk-9dl-12" edge="1">
                    <mxGeometry x="0.16" relative="1" as="geometry">
                        <Array as="points">
                            <mxPoint x="565" y="1395"/>
                            <mxPoint x="565" y="1605"/>
                        </Array>
                        <mxPoint as="offset"/>
                    </mxGeometry>
                </mxCell>
                <mxCell id="6ou4WCCmQBVYviTk-9dl-8" value="«argo-app»&lt;br&gt;&lt;b&gt;app-stage1&lt;/b&gt;" style="html=1;fillColor=#dae8fc;strokeColor=#6c8ebf;" parent="nsVgLiraT71_AxL_cq3k-1" vertex="1">
                    <mxGeometry x="445" y="1390" width="90" height="30" as="geometry"/>
                </mxCell>
                <mxCell id="6ou4WCCmQBVYviTk-9dl-11" value="«git-repo»&lt;br&gt;&lt;b&gt;app-config/argocd&lt;/b&gt;" style="html=1;fillColor=#dae8fc;strokeColor=#6c8ebf;" parent="nsVgLiraT71_AxL_cq3k-1" vertex="1">
                    <mxGeometry x="445" y="1520" width="110" height="50" as="geometry"/>
                </mxCell>
                <mxCell id="6ou4WCCmQBVYviTk-9dl-12" value="«git-repo»&lt;br&gt;&lt;b&gt;app-config/helm&lt;/b&gt;" style="html=1;fillColor=#dae8fc;strokeColor=#6c8ebf;" parent="nsVgLiraT71_AxL_cq3k-1" vertex="1">
                    <mxGeometry x="445" y="1580" width="110" height="50" as="geometry"/>
                </mxCell>
                <mxCell id="6ou4WCCmQBVYviTk-9dl-77" value="generate" style="edgeStyle=orthogonalEdgeStyle;rounded=0;html=1;entryX=0;entryY=0.5;entryDx=0;entryDy=0;startArrow=none;startFill=0;endArrow=classic;endFill=1;" parent="nsVgLiraT71_AxL_cq3k-1" source="6ou4WCCmQBVYviTk-9dl-15" target="6ou4WCCmQBVYviTk-9dl-62" edge="1">
                    <mxGeometry relative="1" as="geometry"/>
                </mxCell>
                <mxCell id="6ou4WCCmQBVYviTk-9dl-15" value="«argo-app»&lt;br&gt;&lt;b&gt;app-pipeline&lt;/b&gt;" style="html=1;fillColor=#ffe6cc;strokeColor=#d79b00;dashed=1;" parent="nsVgLiraT71_AxL_cq3k-1" vertex="1">
                    <mxGeometry x="304" y="1330" width="90" height="30" as="geometry"/>
                </mxCell>
                <mxCell id="6ou4WCCmQBVYviTk-9dl-16" value="«Kubernetes»&lt;br&gt;&lt;b&gt;cluster&lt;/b&gt;" style="html=1;verticalAlign=top;" parent="nsVgLiraT71_AxL_cq3k-1" vertex="1">
                    <mxGeometry x="1620" y="580" width="600" height="400" as="geometry"/>
                </mxCell>
                <mxCell id="6ou4WCCmQBVYviTk-9dl-26" style="edgeStyle=orthogonalEdgeStyle;rounded=0;html=1;entryX=0;entryY=0.5;entryDx=0;entryDy=0;exitX=0.5;exitY=1;exitDx=0;exitDy=0;" parent="nsVgLiraT71_AxL_cq3k-1" source="6ou4WCCmQBVYviTk-9dl-17" target="6ou4WCCmQBVYviTk-9dl-18" edge="1">
                    <mxGeometry relative="1" as="geometry"/>
                </mxCell>
                <mxCell id="6ou4WCCmQBVYviTk-9dl-27" style="edgeStyle=orthogonalEdgeStyle;rounded=0;html=1;entryX=0;entryY=0.5;entryDx=0;entryDy=0;" parent="nsVgLiraT71_AxL_cq3k-1" source="6ou4WCCmQBVYviTk-9dl-17" target="6ou4WCCmQBVYviTk-9dl-19" edge="1">
                    <mxGeometry relative="1" as="geometry">
                        <Array as="points">
                            <mxPoint x="1704" y="875"/>
                        </Array>
                    </mxGeometry>
                </mxCell>
                <mxCell id="6ou4WCCmQBVYviTk-9dl-28" value="deploy" style="edgeStyle=orthogonalEdgeStyle;rounded=0;html=1;entryX=0;entryY=0.5;entryDx=0;entryDy=0;" parent="nsVgLiraT71_AxL_cq3k-1" source="6ou4WCCmQBVYviTk-9dl-17" target="6ou4WCCmQBVYviTk-9dl-20" edge="1">
                    <mxGeometry x="-0.561" relative="1" as="geometry">
                        <Array as="points">
                            <mxPoint x="1704" y="935"/>
                        </Array>
                        <mxPoint as="offset"/>
                    </mxGeometry>
                </mxCell>
                <mxCell id="6ou4WCCmQBVYviTk-9dl-17" value="«namespace»&lt;br&gt;&lt;b&gt;app1-cicd&lt;/b&gt;" style="html=1;" parent="nsVgLiraT71_AxL_cq3k-1" vertex="1">
                    <mxGeometry x="1649" y="755" width="110" height="50" as="geometry"/>
                </mxCell>
                <mxCell id="6ou4WCCmQBVYviTk-9dl-18" value="«namespace»&lt;br&gt;&lt;b&gt;app1-stage1&lt;/b&gt;" style="html=1;" parent="nsVgLiraT71_AxL_cq3k-1" vertex="1">
                    <mxGeometry x="1779" y="790" width="110" height="50" as="geometry"/>
                </mxCell>
                <mxCell id="6ou4WCCmQBVYviTk-9dl-19" value="«namespace»&lt;br&gt;&lt;b&gt;app1-stage2&lt;/b&gt;" style="html=1;" parent="nsVgLiraT71_AxL_cq3k-1" vertex="1">
                    <mxGeometry x="1779" y="850" width="110" height="50" as="geometry"/>
                </mxCell>
                <mxCell id="6ou4WCCmQBVYviTk-9dl-20" value="«namespace»&lt;br&gt;&lt;b&gt;app1-stage3&lt;/b&gt;" style="html=1;" parent="nsVgLiraT71_AxL_cq3k-1" vertex="1">
                    <mxGeometry x="1779" y="910" width="110" height="50" as="geometry"/>
                </mxCell>
                <mxCell id="6ou4WCCmQBVYviTk-9dl-21" value="«namespace»&lt;br&gt;&lt;b&gt;app2-cicd&lt;/b&gt;" style="html=1;" parent="nsVgLiraT71_AxL_cq3k-1" vertex="1">
                    <mxGeometry x="1954" y="755" width="110" height="50" as="geometry"/>
                </mxCell>
                <mxCell id="6ou4WCCmQBVYviTk-9dl-22" value="«namespace»&lt;br&gt;&lt;b&gt;app2-stage1&lt;/b&gt;" style="html=1;" parent="nsVgLiraT71_AxL_cq3k-1" vertex="1">
                    <mxGeometry x="2084" y="790" width="110" height="50" as="geometry"/>
                </mxCell>
                <mxCell id="6ou4WCCmQBVYviTk-9dl-23" value="«namespace»&lt;br&gt;&lt;b&gt;app2-stage2&lt;/b&gt;" style="html=1;" parent="nsVgLiraT71_AxL_cq3k-1" vertex="1">
                    <mxGeometry x="2084" y="850" width="110" height="50" as="geometry"/>
                </mxCell>
                <mxCell id="6ou4WCCmQBVYviTk-9dl-59" value="" style="html=1;dashed=1;fillColor=none;" parent="nsVgLiraT71_AxL_cq3k-1" vertex="1">
                    <mxGeometry x="190" y="1285" width="210" height="175" as="geometry"/>
                </mxCell>
                <mxCell id="6ou4WCCmQBVYviTk-9dl-25" value="«namespace»&lt;br&gt;&lt;b&gt;gov&lt;/b&gt;" style="html=1;" parent="nsVgLiraT71_AxL_cq3k-1" vertex="1">
                    <mxGeometry x="1864" y="650" width="110" height="50" as="geometry"/>
                </mxCell>
                <mxCell id="6ou4WCCmQBVYviTk-9dl-32" value="«git-repo»&lt;br&gt;&lt;b&gt;app-gov/apps-tpl&lt;/b&gt;" style="html=1;fillColor=#dae8fc;strokeColor=#6c8ebf;" parent="nsVgLiraT71_AxL_cq3k-1" vertex="1">
                    <mxGeometry x="80" y="1520" width="110" height="50" as="geometry"/>
                </mxCell>
                <mxCell id="6ou4WCCmQBVYviTk-9dl-44" value="update app template config" style="edgeStyle=orthogonalEdgeStyle;rounded=0;html=1;" parent="nsVgLiraT71_AxL_cq3k-1" source="6ou4WCCmQBVYviTk-9dl-36" target="6ou4WCCmQBVYviTk-9dl-42" edge="1">
                    <mxGeometry relative="1" as="geometry">
                        <Array as="points">
                            <mxPoint x="350" y="300"/>
                            <mxPoint x="350" y="300"/>
                        </Array>
                    </mxGeometry>
                </mxCell>
                <mxCell id="6ou4WCCmQBVYviTk-9dl-36" value="DevOps Engineer" style="shape=umlLifeline;participant=umlActor;perimeter=lifelinePerimeter;whiteSpace=wrap;html=1;container=1;collapsible=0;recursiveResize=0;verticalAlign=top;spacingTop=36;outlineConnect=0;" parent="nsVgLiraT71_AxL_cq3k-1" vertex="1">
                    <mxGeometry x="20" y="90" width="20" height="300" as="geometry"/>
                </mxCell>
                <mxCell id="6ou4WCCmQBVYviTk-9dl-37" value=":k8s-cluster" style="shape=umlLifeline;perimeter=lifelinePerimeter;whiteSpace=wrap;html=1;container=1;collapsible=0;recursiveResize=0;outlineConnect=0;" parent="nsVgLiraT71_AxL_cq3k-1" vertex="1">
                    <mxGeometry x="530" y="90" width="100" height="300" as="geometry"/>
                </mxCell>
                <mxCell id="6ou4WCCmQBVYviTk-9dl-38" value="update gov config (namespaces)" style="html=1;verticalAlign=bottom;endArrow=block;rounded=0;" parent="nsVgLiraT71_AxL_cq3k-1" source="6ou4WCCmQBVYviTk-9dl-36" target="6ou4WCCmQBVYviTk-9dl-40" edge="1">
                    <mxGeometry width="80" relative="1" as="geometry">
                        <mxPoint x="390" y="410" as="sourcePoint"/>
                        <mxPoint x="470" y="410" as="targetPoint"/>
                        <Array as="points">
                            <mxPoint x="300" y="180"/>
                        </Array>
                    </mxGeometry>
                </mxCell>
                <mxCell id="6ou4WCCmQBVYviTk-9dl-39" value="init (governance)" style="html=1;verticalAlign=bottom;endArrow=block;rounded=0;" parent="nsVgLiraT71_AxL_cq3k-1" source="6ou4WCCmQBVYviTk-9dl-36" target="6ou4WCCmQBVYviTk-9dl-37" edge="1">
                    <mxGeometry width="80" relative="1" as="geometry">
                        <mxPoint x="390" y="410" as="sourcePoint"/>
                        <mxPoint x="470" y="410" as="targetPoint"/>
                        <Array as="points">
                            <mxPoint x="180" y="210"/>
                        </Array>
                    </mxGeometry>
                </mxCell>
                <mxCell id="6ou4WCCmQBVYviTk-9dl-40" value=":governance-repo" style="shape=umlLifeline;perimeter=lifelinePerimeter;whiteSpace=wrap;html=1;container=1;collapsible=0;recursiveResize=0;outlineConnect=0;" parent="nsVgLiraT71_AxL_cq3k-1" vertex="1">
                    <mxGeometry x="250" y="90" width="100" height="300" as="geometry"/>
                </mxCell>
                <mxCell id="6ou4WCCmQBVYviTk-9dl-41" value="update namespaces" style="html=1;verticalAlign=bottom;endArrow=block;rounded=0;" parent="nsVgLiraT71_AxL_cq3k-1" source="6ou4WCCmQBVYviTk-9dl-37" target="6ou4WCCmQBVYviTk-9dl-37" edge="1">
                    <mxGeometry width="80" relative="1" as="geometry">
                        <mxPoint x="195.32352941176464" y="220" as="sourcePoint"/>
                        <mxPoint x="589.5" y="220" as="targetPoint"/>
                        <Array as="points">
                            <mxPoint x="676" y="220"/>
                            <mxPoint x="676" y="260"/>
                        </Array>
                    </mxGeometry>
                </mxCell>
                <mxCell id="6ou4WCCmQBVYviTk-9dl-42" value=":governance-app-repo" style="shape=umlLifeline;perimeter=lifelinePerimeter;whiteSpace=wrap;html=1;container=1;collapsible=0;recursiveResize=0;outlineConnect=0;" parent="nsVgLiraT71_AxL_cq3k-1" vertex="1">
                    <mxGeometry x="394" y="90" width="100" height="310" as="geometry"/>
                </mxCell>
                <mxCell id="6ou4WCCmQBVYviTk-9dl-47" value="apply app template" style="html=1;verticalAlign=bottom;endArrow=block;rounded=0;" parent="nsVgLiraT71_AxL_cq3k-1" edge="1">
                    <mxGeometry width="80" relative="1" as="geometry">
                        <mxPoint x="29.32352941176464" y="332" as="sourcePoint"/>
                        <mxPoint x="579.5" y="332" as="targetPoint"/>
                    </mxGeometry>
                </mxCell>
                <mxCell id="6ou4WCCmQBVYviTk-9dl-48" value=":argo-cd" style="shape=umlLifeline;perimeter=lifelinePerimeter;whiteSpace=wrap;html=1;container=1;collapsible=0;recursiveResize=0;outlineConnect=0;" parent="nsVgLiraT71_AxL_cq3k-1" vertex="1">
                    <mxGeometry x="734" y="90" width="100" height="300" as="geometry"/>
                </mxCell>
                <mxCell id="6ou4WCCmQBVYviTk-9dl-49" value=":argo-project" style="shape=umlLifeline;perimeter=lifelinePerimeter;whiteSpace=wrap;html=1;container=1;collapsible=0;recursiveResize=0;outlineConnect=0;" parent="nsVgLiraT71_AxL_cq3k-1" vertex="1">
                    <mxGeometry x="864" y="90" width="100" height="300" as="geometry"/>
                </mxCell>
                <mxCell id="6ou4WCCmQBVYviTk-9dl-50" value=":argo-app" style="shape=umlLifeline;perimeter=lifelinePerimeter;whiteSpace=wrap;html=1;container=1;collapsible=0;recursiveResize=0;outlineConnect=0;" parent="nsVgLiraT71_AxL_cq3k-1" vertex="1">
                    <mxGeometry x="980" y="90" width="100" height="400" as="geometry"/>
                </mxCell>
                <mxCell id="6ou4WCCmQBVYviTk-9dl-52" value="create" style="html=1;verticalAlign=bottom;endArrow=block;rounded=0;" parent="nsVgLiraT71_AxL_cq3k-1" edge="1">
                    <mxGeometry width="80" relative="1" as="geometry">
                        <mxPoint x="579.3235294117646" y="351" as="sourcePoint"/>
                        <mxPoint x="783.5" y="351" as="targetPoint"/>
                    </mxGeometry>
                </mxCell>
                <mxCell id="6ou4WCCmQBVYviTk-9dl-53" value="create" style="html=1;verticalAlign=bottom;endArrow=block;rounded=0;" parent="nsVgLiraT71_AxL_cq3k-1" edge="1">
                    <mxGeometry width="80" relative="1" as="geometry">
                        <mxPoint x="579.3235294117646" y="370" as="sourcePoint"/>
                        <mxPoint x="913.5" y="370" as="targetPoint"/>
                    </mxGeometry>
                </mxCell>
                <mxCell id="6ou4WCCmQBVYviTk-9dl-54" value="create" style="html=1;verticalAlign=bottom;endArrow=block;rounded=0;" parent="nsVgLiraT71_AxL_cq3k-1" edge="1">
                    <mxGeometry width="80" relative="1" as="geometry">
                        <mxPoint x="579.3235294117646" y="389" as="sourcePoint"/>
                        <mxPoint x="1029.5" y="389" as="targetPoint"/>
                    </mxGeometry>
                </mxCell>
                <mxCell id="6ou4WCCmQBVYviTk-9dl-55" value=":app" style="shape=umlLifeline;perimeter=lifelinePerimeter;whiteSpace=wrap;html=1;container=1;collapsible=0;recursiveResize=0;outlineConnect=0;" parent="nsVgLiraT71_AxL_cq3k-1" vertex="1">
                    <mxGeometry x="1220" y="90" width="100" height="400" as="geometry"/>
                </mxCell>
                <mxCell id="6ou4WCCmQBVYviTk-9dl-56" value="manage" style="html=1;verticalAlign=bottom;endArrow=none;rounded=0;startArrow=classic;startFill=1;endFill=0;" parent="nsVgLiraT71_AxL_cq3k-1" source="6ou4WCCmQBVYviTk-9dl-55" target="6ou4WCCmQBVYviTk-9dl-50" edge="1">
                    <mxGeometry width="80" relative="1" as="geometry">
                        <mxPoint x="940" y="480" as="sourcePoint"/>
                        <mxPoint x="1020" y="480" as="targetPoint"/>
                        <Array as="points">
                            <mxPoint x="1160" y="470"/>
                        </Array>
                    </mxGeometry>
                </mxCell>
                <mxCell id="6ou4WCCmQBVYviTk-9dl-61" value="reference" style="edgeStyle=orthogonalEdgeStyle;rounded=0;html=1;entryX=0.5;entryY=0;entryDx=0;entryDy=0;startArrow=none;startFill=0;endArrow=classic;endFill=1;exitX=-0.022;exitY=0.443;exitDx=0;exitDy=0;exitPerimeter=0;dashed=1;dashPattern=1 1;" parent="nsVgLiraT71_AxL_cq3k-1" source="6ou4WCCmQBVYviTk-9dl-59" target="6ou4WCCmQBVYviTk-9dl-32" edge="1">
                    <mxGeometry relative="1" as="geometry">
                        <Array as="points">
                            <mxPoint x="135" y="1363"/>
                        </Array>
                    </mxGeometry>
                </mxCell>
                <mxCell id="tsx76kW40hrkIDjsJAma-0" value="" style="rounded=0;whiteSpace=wrap;html=1;fillColor=none;strokeColor=#d79b00;" parent="nsVgLiraT71_AxL_cq3k-1" vertex="1">
                    <mxGeometry x="970" y="40" width="360" height="460" as="geometry"/>
                </mxCell>
                <mxCell id="tsx76kW40hrkIDjsJAma-3" value="" style="edgeStyle=orthogonalEdgeStyle;html=1;rounded=0;" parent="nsVgLiraT71_AxL_cq3k-1" source="tsx76kW40hrkIDjsJAma-1" target="tsx76kW40hrkIDjsJAma-2" edge="1">
                    <mxGeometry relative="1" as="geometry">
                        <Array as="points">
                            <mxPoint x="290" y="585"/>
                            <mxPoint x="290" y="535"/>
                        </Array>
                    </mxGeometry>
                </mxCell>
                <mxCell id="tsx76kW40hrkIDjsJAma-5" value="" style="edgeStyle=orthogonalEdgeStyle;rounded=0;html=1;entryX=0;entryY=0.5;entryDx=0;entryDy=0;" parent="nsVgLiraT71_AxL_cq3k-1" source="tsx76kW40hrkIDjsJAma-1" target="tsx76kW40hrkIDjsJAma-4" edge="1">
                    <mxGeometry relative="1" as="geometry">
                        <Array as="points">
                            <mxPoint x="290" y="585"/>
                            <mxPoint x="290" y="640"/>
                        </Array>
                    </mxGeometry>
                </mxCell>
                <mxCell id="tsx76kW40hrkIDjsJAma-1" value="«config»&lt;br&gt;&lt;b&gt;gov&lt;/b&gt;" style="html=1;fillColor=#d5e8d4;strokeColor=#82b366;" parent="nsVgLiraT71_AxL_cq3k-1" vertex="1">
                    <mxGeometry x="110" y="560" width="110" height="50" as="geometry"/>
                </mxCell>
                <mxCell id="tsx76kW40hrkIDjsJAma-2" value="«config»&lt;br&gt;&lt;b&gt;cluster-config&lt;/b&gt;" style="html=1;fillColor=#d5e8d4;strokeColor=#82b366;" parent="nsVgLiraT71_AxL_cq3k-1" vertex="1">
                    <mxGeometry x="344" y="510" width="110" height="50" as="geometry"/>
                </mxCell>
                <mxCell id="tsx76kW40hrkIDjsJAma-4" value="«config»&lt;br&gt;&lt;b&gt;app-template&lt;/b&gt;" style="html=1;fillColor=#d5e8d4;strokeColor=#82b366;" parent="nsVgLiraT71_AxL_cq3k-1" vertex="1">
                    <mxGeometry x="344" y="615" width="110" height="50" as="geometry"/>
                </mxCell>
                <mxCell id="tsx76kW40hrkIDjsJAma-13" value="use" style="edgeStyle=orthogonalEdgeStyle;rounded=0;html=1;entryX=0;entryY=0.5;entryDx=0;entryDy=0;" parent="nsVgLiraT71_AxL_cq3k-1" source="tsx76kW40hrkIDjsJAma-6" target="tsx76kW40hrkIDjsJAma-12" edge="1">
                    <mxGeometry relative="1" as="geometry"/>
                </mxCell>
                <mxCell id="tsx76kW40hrkIDjsJAma-6" value="«config»&lt;br&gt;&lt;b&gt;cluster-capability&lt;/b&gt;" style="html=1;fillColor=#d5e8d4;strokeColor=#82b366;" parent="nsVgLiraT71_AxL_cq3k-1" vertex="1">
                    <mxGeometry x="554" y="510" width="110" height="50" as="geometry"/>
                </mxCell>
                <mxCell id="tsx76kW40hrkIDjsJAma-7" value="1" style="endArrow=open;html=1;endSize=12;startArrow=diamondThin;startSize=14;startFill=1;edgeStyle=orthogonalEdgeStyle;align=left;verticalAlign=bottom;rounded=0;exitX=1;exitY=0.5;exitDx=0;exitDy=0;entryX=0;entryY=0.5;entryDx=0;entryDy=0;" parent="nsVgLiraT71_AxL_cq3k-1" source="tsx76kW40hrkIDjsJAma-2" target="tsx76kW40hrkIDjsJAma-6" edge="1">
                    <mxGeometry x="-1" y="3" relative="1" as="geometry">
                        <mxPoint x="210" y="360" as="sourcePoint"/>
                        <mxPoint x="370" y="360" as="targetPoint"/>
                    </mxGeometry>
                </mxCell>
                <mxCell id="tsx76kW40hrkIDjsJAma-15" value="use" style="edgeStyle=orthogonalEdgeStyle;rounded=0;html=1;entryX=0;entryY=0.5;entryDx=0;entryDy=0;" parent="nsVgLiraT71_AxL_cq3k-1" source="tsx76kW40hrkIDjsJAma-8" target="tsx76kW40hrkIDjsJAma-14" edge="1">
                    <mxGeometry relative="1" as="geometry"/>
                </mxCell>
                <mxCell id="tsx76kW40hrkIDjsJAma-8" value="«config»&lt;br&gt;&lt;b&gt;app-deploy-manifest&lt;/b&gt;" style="html=1;fillColor=#d5e8d4;strokeColor=#82b366;" parent="nsVgLiraT71_AxL_cq3k-1" vertex="1">
                    <mxGeometry x="554" y="610" width="110" height="50" as="geometry"/>
                </mxCell>
                <mxCell id="tsx76kW40hrkIDjsJAma-9" value="1" style="endArrow=open;html=1;endSize=12;startArrow=diamondThin;startSize=14;startFill=1;edgeStyle=orthogonalEdgeStyle;align=left;verticalAlign=bottom;rounded=0;entryX=0;entryY=0.5;entryDx=0;entryDy=0;exitX=1;exitY=0.25;exitDx=0;exitDy=0;" parent="nsVgLiraT71_AxL_cq3k-1" source="tsx76kW40hrkIDjsJAma-4" target="tsx76kW40hrkIDjsJAma-8" edge="1">
                    <mxGeometry x="-1" y="3" relative="1" as="geometry">
                        <mxPoint x="450" y="625" as="sourcePoint"/>
                        <mxPoint x="564" y="550" as="targetPoint"/>
                    </mxGeometry>
                </mxCell>
                <mxCell id="tsx76kW40hrkIDjsJAma-17" value="use" style="edgeStyle=orthogonalEdgeStyle;rounded=0;html=1;entryX=0;entryY=0.5;entryDx=0;entryDy=0;" parent="nsVgLiraT71_AxL_cq3k-1" source="tsx76kW40hrkIDjsJAma-10" target="tsx76kW40hrkIDjsJAma-16" edge="1">
                    <mxGeometry relative="1" as="geometry"/>
                </mxCell>
                <mxCell id="tsx76kW40hrkIDjsJAma-10" value="«config»&lt;br&gt;&lt;b&gt;tekton-manifest&lt;/b&gt;" style="html=1;fillColor=#d5e8d4;strokeColor=#82b366;" parent="nsVgLiraT71_AxL_cq3k-1" vertex="1">
                    <mxGeometry x="554" y="675" width="110" height="50" as="geometry"/>
                </mxCell>
                <mxCell id="tsx76kW40hrkIDjsJAma-11" value="1" style="endArrow=open;html=1;endSize=12;startArrow=diamondThin;startSize=14;startFill=1;edgeStyle=orthogonalEdgeStyle;align=left;verticalAlign=bottom;rounded=0;exitX=1;exitY=0.75;exitDx=0;exitDy=0;entryX=0;entryY=0.5;entryDx=0;entryDy=0;" parent="nsVgLiraT71_AxL_cq3k-1" source="tsx76kW40hrkIDjsJAma-4" target="tsx76kW40hrkIDjsJAma-10" edge="1">
                    <mxGeometry x="-1" y="3" relative="1" as="geometry">
                        <mxPoint x="464" y="650" as="sourcePoint"/>
                        <mxPoint x="564" y="645" as="targetPoint"/>
                    </mxGeometry>
                </mxCell>
                <mxCell id="tsx76kW40hrkIDjsJAma-12" value="«repo»&lt;br&gt;&lt;b&gt;cluster-capability&lt;/b&gt;" style="html=1;fillColor=#d5e8d4;strokeColor=#82b366;" parent="nsVgLiraT71_AxL_cq3k-1" vertex="1">
                    <mxGeometry x="764" y="510" width="110" height="50" as="geometry"/>
                </mxCell>
                <mxCell id="tsx76kW40hrkIDjsJAma-14" value="«repo»&lt;br&gt;&lt;b&gt;project-app-config&lt;/b&gt;" style="html=1;fillColor=#dae8fc;strokeColor=#6c8ebf;" parent="nsVgLiraT71_AxL_cq3k-1" vertex="1">
                    <mxGeometry x="764" y="610" width="110" height="50" as="geometry"/>
                </mxCell>
                <mxCell id="tsx76kW40hrkIDjsJAma-16" value="«repo»&lt;br&gt;&lt;b&gt;tekton-config&lt;/b&gt;" style="html=1;fillColor=#d5e8d4;strokeColor=#82b366;" parent="nsVgLiraT71_AxL_cq3k-1" vertex="1">
                    <mxGeometry x="764" y="675" width="110" height="50" as="geometry"/>
                </mxCell>
                <mxCell id="tsx76kW40hrkIDjsJAma-18" value="App-Developer" style="shape=umlActor;verticalLabelPosition=bottom;verticalAlign=top;html=1;outlineConnect=0;fillColor=#dae8fc;strokeColor=#6c8ebf;" parent="nsVgLiraT71_AxL_cq3k-1" vertex="1">
                    <mxGeometry x="30" y="630" width="30" height="60" as="geometry"/>
                </mxCell>
                <mxCell id="tsx76kW40hrkIDjsJAma-19" value="DevOps Engineer" style="shape=umlActor;verticalLabelPosition=bottom;verticalAlign=top;html=1;outlineConnect=0;fillColor=#d5e8d4;strokeColor=#82b366;" parent="nsVgLiraT71_AxL_cq3k-1" vertex="1">
                    <mxGeometry x="30" y="490" width="30" height="60" as="geometry"/>
                </mxCell>
                <mxCell id="6ou4WCCmQBVYviTk-9dl-62" value="«k8s»&lt;br&gt;&lt;b&gt;tekon-resources&lt;/b&gt;" style="html=1;fillColor=#ffe6cc;strokeColor=#d79b00;" parent="nsVgLiraT71_AxL_cq3k-1" vertex="1">
                    <mxGeometry x="454" y="1290" width="90" height="30" as="geometry"/>
                </mxCell>
                <mxCell id="6ou4WCCmQBVYviTk-9dl-63" value="ArgoCD" style="shape=umlActor;verticalLabelPosition=bottom;verticalAlign=top;html=1;outlineConnect=0;fillColor=#ffe6cc;strokeColor=#d79b00;" parent="nsVgLiraT71_AxL_cq3k-1" vertex="1">
                    <mxGeometry x="90" y="1060" width="30" height="60" as="geometry"/>
                </mxCell>
                <mxCell id="6ou4WCCmQBVYviTk-9dl-64" value="«argo-cd»&lt;br&gt;&lt;b&gt;argocd&lt;/b&gt;" style="html=1;fillColor=#ffe6cc;strokeColor=#d79b00;" parent="nsVgLiraT71_AxL_cq3k-1" vertex="1">
                    <mxGeometry x="310" y="970" width="90" height="30" as="geometry"/>
                </mxCell>
                <mxCell id="6ou4WCCmQBVYviTk-9dl-65" value="«argo-project»&lt;br&gt;&lt;b&gt;default&lt;/b&gt;" style="html=1;fillColor=#ffe6cc;strokeColor=#d79b00;" parent="nsVgLiraT71_AxL_cq3k-1" vertex="1">
                    <mxGeometry x="310" y="1020" width="90" height="30" as="geometry"/>
                </mxCell>
                <mxCell id="6ou4WCCmQBVYviTk-9dl-67" style="edgeStyle=orthogonalEdgeStyle;rounded=0;html=1;entryX=0.5;entryY=1;entryDx=0;entryDy=0;startArrow=none;startFill=0;endArrow=classic;endFill=1;exitX=0.5;exitY=0;exitDx=0;exitDy=0;" parent="nsVgLiraT71_AxL_cq3k-1" source="6ou4WCCmQBVYviTk-9dl-66" target="6ou4WCCmQBVYviTk-9dl-65" edge="1">
                    <mxGeometry relative="1" as="geometry"/>
                </mxCell>
                <mxCell id="6ou4WCCmQBVYviTk-9dl-73" value="manage" style="edgeStyle=orthogonalEdgeStyle;rounded=0;html=1;entryX=0.33;entryY=-0.011;entryDx=0;entryDy=0;entryPerimeter=0;dashed=1;startArrow=none;startFill=0;endArrow=classic;endFill=1;" parent="nsVgLiraT71_AxL_cq3k-1" source="6ou4WCCmQBVYviTk-9dl-66" target="6ou4WCCmQBVYviTk-9dl-59" edge="1">
                    <mxGeometry x="0.5279" relative="1" as="geometry">
                        <mxPoint as="offset"/>
                    </mxGeometry>
                </mxCell>
                <mxCell id="6ou4WCCmQBVYviTk-9dl-66" value="«argo-app»&lt;br&gt;&lt;b&gt;gov-projects&lt;/b&gt;" style="html=1;fillColor=#ffe6cc;strokeColor=#d79b00;" parent="nsVgLiraT71_AxL_cq3k-1" vertex="1">
                    <mxGeometry x="214" y="1075" width="90" height="30" as="geometry"/>
                </mxCell>
                <mxCell id="6ou4WCCmQBVYviTk-9dl-71" style="edgeStyle=orthogonalEdgeStyle;rounded=0;html=1;entryX=0.5;entryY=1;entryDx=0;entryDy=0;startArrow=none;startFill=0;endArrow=classic;endFill=1;exitX=0.5;exitY=0;exitDx=0;exitDy=0;" parent="nsVgLiraT71_AxL_cq3k-1" source="6ou4WCCmQBVYviTk-9dl-68" target="6ou4WCCmQBVYviTk-9dl-65" edge="1">
                    <mxGeometry relative="1" as="geometry"/>
                </mxCell>
                <mxCell id="6ou4WCCmQBVYviTk-9dl-72" value="manage" style="edgeStyle=orthogonalEdgeStyle;rounded=0;html=1;startArrow=none;startFill=0;endArrow=classic;endFill=1;dashed=1;" parent="nsVgLiraT71_AxL_cq3k-1" source="6ou4WCCmQBVYviTk-9dl-68" target="6ou4WCCmQBVYviTk-9dl-62" edge="1">
                    <mxGeometry x="0.4624" relative="1" as="geometry">
                        <mxPoint as="offset"/>
                    </mxGeometry>
                </mxCell>
                <mxCell id="6ou4WCCmQBVYviTk-9dl-68" value="«argo-app»&lt;br&gt;&lt;b&gt;prj-app-pipeline&lt;/b&gt;" style="html=1;fillColor=#ffe6cc;strokeColor=#d79b00;dashed=1;" parent="nsVgLiraT71_AxL_cq3k-1" vertex="1">
                    <mxGeometry x="455" y="1075" width="90" height="30" as="geometry"/>
                </mxCell>
                <mxCell id="6ou4WCCmQBVYviTk-9dl-70" style="edgeStyle=orthogonalEdgeStyle;rounded=0;html=1;entryX=0.5;entryY=1;entryDx=0;entryDy=0;startArrow=none;startFill=0;endArrow=classic;endFill=1;" parent="nsVgLiraT71_AxL_cq3k-1" source="6ou4WCCmQBVYviTk-9dl-69" target="6ou4WCCmQBVYviTk-9dl-65" edge="1">
                    <mxGeometry relative="1" as="geometry"/>
                </mxCell>
                <mxCell id="6ou4WCCmQBVYviTk-9dl-69" value="«argo-appset»&lt;br&gt;&lt;b&gt;gov-cluster-config&lt;/b&gt;" style="html=1;fillColor=#ffe6cc;strokeColor=#d79b00;" parent="nsVgLiraT71_AxL_cq3k-1" vertex="1">
                    <mxGeometry x="332" y="1075" width="90" height="30" as="geometry"/>
                </mxCell>
                <mxCell id="6ou4WCCmQBVYviTk-9dl-75" value="" style="rounded=0;whiteSpace=wrap;html=1;dashed=1;fillColor=none;strokeColor=#82b366;" parent="nsVgLiraT71_AxL_cq3k-1" vertex="1">
                    <mxGeometry x="199" y="1060" width="361" height="60" as="geometry"/>
                </mxCell>
                <mxCell id="xsDC2VhEvb90YRFbdPqD-0" value="«git-repo»&lt;br&gt;&lt;b&gt;app-source-code&lt;/b&gt;" style="html=1;fillColor=#dae8fc;strokeColor=#6c8ebf;" parent="nsVgLiraT71_AxL_cq3k-1" vertex="1">
                    <mxGeometry x="444" y="1640" width="110" height="50" as="geometry"/>
                </mxCell>
            </root>
        </mxGraphModel>
    </diagram>
</mxfile>